<?xml version="1.0" standalone="no"?>
<!DOCTYPE svg PUBLIC "-//W3C//DTD SVG 20010904//EN"
 "http://www.w3.org/TR/2001/REC-SVG-20010904/DTD/svg10.dtd">
<svg version="1.0" xmlns="http://www.w3.org/2000/svg"
 width="400.000000pt" height="400.000000pt" viewBox="0 0 400.000000 400.000000"
 preserveAspectRatio="xMidYMid meet">
<metadata>
Created by potrace 1.15, written by Peter Selinger 2001-2017
</metadata>
<g transform="translate(0.000000,400.000000) scale(0.100000,-0.100000)"
fill="#000000" stroke="none">
<path d="M2440 3331 c-60 -19 -240 -115 -306 -163 -35 -25 -45 -28 -62 -19
-29 15 -88 14 -120 -4 -15 -7 -60 -48 -101 -89 l-75 -75 -27 48 c-34 63 -111
161 -147 188 -98 72 -214 107 -352 106 -175 -2 -352 -51 -555 -155 -182 -92
-372 -229 -427 -306 -126 -175 -206 -537 -140 -630 31 -43 77 -66 134 -65 49
1 93 21 258 121 94 58 109 63 88 30 -33 -52 -128 -217 -134 -234 -4 -11 -35
-68 -69 -129 -130 -231 -307 -600 -349 -726 -37 -110 -59 -250 -54 -341 4 -65
9 -82 33 -113 40 -53 83 -69 190 -67 165 2 338 51 528 150 97 51 275 174 367
255 66 58 252 261 290 317 195 287 198 293 273 475 46 113 107 297 107 325 0
8 30 37 68 65 37 27 111 86 166 130 206 168 251 203 254 200 7 -6 -203 -412
-285 -552 -47 -81 -97 -168 -111 -193 -21 -39 -67 -115 -266 -435 -84 -136
-91 -157 -90 -295 1 -202 33 -304 106 -341 90 -46 184 1 243 121 9 19 56 101
103 183 80 139 105 174 83 114 -6 -14 -15 -73 -21 -130 -20 -182 12 -313 85
-353 41 -22 103 -15 149 17 29 20 148 190 360 516 22 34 41 61 42 60 1 -1 -9
-48 -21 -105 -58 -254 -34 -428 71 -521 99 -87 216 -80 349 21 138 106 327
296 469 473 62 78 73 106 83 212 7 85 -7 116 -65 140 -56 23 -93 6 -197 -92
-102 -97 -214 -198 -232 -208 -19 -12 11 79 74 228 30 72 68 160 83 196 27 65
117 228 197 360 22 35 42 71 45 79 3 8 38 62 78 120 40 58 102 146 136 197 35
50 99 140 143 200 84 113 111 170 111 236 0 58 -37 206 -63 252 -46 81 -124
105 -212 64 -44 -21 -69 -45 -297 -297 -61 -67 -112 -121 -114 -119 -2 2 6 28
18 58 16 41 22 76 22 149 0 86 -2 101 -31 162 -26 54 -39 71 -72 87 -72 37
-129 24 -229 -52 -70 -54 -182 -162 -248 -239 l-49 -58 -2 95 c-7 311 -92 418
-283 356z m124 -110 c52 -57 60 -317 14 -452 -34 -96 -123 -304 -232 -538 -47
-101 -85 -186 -83 -187 2 -2 77 105 166 237 258 379 356 505 525 675 145 145
207 191 239 178 30 -11 51 -75 51 -154 0 -65 -6 -89 -42 -177 -47 -115 -226
-477 -386 -778 -58 -110 -106 -204 -106 -209 0 -4 80 97 178 225 402 529 402
529 704 863 84 92 165 176 181 184 49 30 72 -4 103 -155 20 -93 18 -98 -144
-320 -71 -98 -165 -232 -209 -298 -287 -431 -523 -948 -523 -1147 0 -90 55
-110 143 -52 42 27 203 170 310 273 37 36 67 63 67 61 0 -3 -4 -31 -10 -63 -8
-52 -17 -67 -87 -150 -116 -136 -288 -312 -373 -380 -134 -108 -201 -121 -259
-50 -37 45 -51 100 -51 203 0 292 174 665 578 1242 98 140 121 183 104 200
-32 32 -431 -458 -749 -918 -61 -88 -177 -261 -258 -385 -159 -241 -209 -309
-230 -309 -23 0 -35 59 -35 174 0 195 10 218 297 689 193 318 390 673 452 814
44 101 59 193 32 193 -4 0 -21 -10 -37 -22 -160 -121 -566 -723 -969 -1438
-165 -293 -174 -308 -201 -329 -49 -39 -71 -1 -82 146 -14 181 -16 176 170
479 227 370 344 574 463 810 115 226 165 354 168 427 5 117 -59 86 -403 -198
-130 -106 -269 -214 -318 -245 -19 -12 -30 -39 -52 -125 -86 -334 -264 -646
-514 -904 -248 -255 -521 -420 -786 -477 -87 -18 -210 -18 -236 0 -43 32 -11
260 61 436 128 311 497 995 752 1394 24 37 42 71 38 74 -9 9 -144 -34 -244
-77 -174 -74 -369 -196 -349 -217 4 -4 56 3 115 15 60 11 113 21 118 21 6 0
-30 -22 -80 -49 -49 -26 -129 -71 -177 -99 -154 -92 -181 -66 -139 133 36 169
81 271 153 350 97 106 332 250 530 325 144 54 248 73 367 68 136 -7 197 -32
281 -117 89 -89 133 -187 155 -345 l7 -49 19 43 c24 53 69 111 158 203 115
120 166 141 71 30 -46 -54 -83 -113 -76 -121 2 -2 50 33 107 78 178 138 331
234 458 286 68 29 83 29 105 5z"/>
<path d="M1080 2762 l-45 -7 -7 -61 c-3 -34 -13 -78 -22 -98 -17 -40 -156
-296 -292 -537 -105 -185 -366 -707 -388 -776 -10 -29 -14 -62 -11 -74 19 -58
158 -62 317 -9 268 90 529 293 722 564 152 213 222 424 215 649 -4 103 -7 118
-37 180 -39 78 -96 127 -177 153 -56 17 -206 26 -275 16z m267 -137 c44 -20
56 -32 80 -77 25 -49 28 -62 28 -163 -1 -160 -39 -304 -116 -436 -196 -337
-544 -612 -841 -668 -37 -6 -48 -6 -48 5 0 19 304 615 406 796 202 357 248
443 267 504 18 54 25 63 46 66 53 7 128 -5 178 -27z"/>
</g>
</svg>
